<svg width="174" height="36" viewBox="0 0 174 36" fill="none" xmlns="http://www.w3.org/2000/svg">
<path fill-rule="evenodd" clip-rule="evenodd" d="M27.4691 12.0197C27.589 12.1901 27.6921 12.3737 27.7762 12.5686C32.7361 13.9067 36.3875 18.3349 36.3875 23.5771C36.3875 29.8757 31.1166 35 24.6378 35C21.2553 35 18.2027 33.6028 16.0569 31.3715H7.9116C6.15855 31.3715 4.73227 29.9849 4.73227 28.2806C4.73227 27.3018 5.20322 26.4283 5.93592 25.8616C5.20322 25.2949 4.73227 24.4215 4.73227 23.4426C4.73227 22.4638 5.20322 21.5904 5.93592 21.0237C5.20322 20.457 4.73227 19.5835 4.73227 18.6047C4.73227 17.6259 5.20322 16.7525 5.93592 16.1857C5.20322 15.619 4.73227 14.7456 4.73227 13.7668C4.73227 12.0625 6.15855 10.6759 7.9116 10.6759H9.71415C9.36221 10.1785 9.15569 9.57679 9.15569 8.92884C9.15569 8.28089 9.36228 7.67917 9.71415 7.18181H4.17934C2.42628 7.18181 1 5.7952 1 4.0909C1 2.38661 2.42628 1 4.17934 1H21.1128C22.8658 1 24.2921 2.38661 24.2921 4.0909C24.2921 4.73885 24.0855 5.34057 23.7337 5.83794H29.2685C31.0215 5.83794 32.4478 7.22454 32.4478 8.92884C32.4478 10.6331 31.0215 12.0197 29.2685 12.0197H27.4691ZM31.0655 8.92884C31.0655 7.96555 30.2594 7.18181 29.2685 7.18181H12.335C11.3441 7.18181 10.538 7.96555 10.538 8.92884C10.538 9.89213 11.3441 10.6759 12.335 10.6759H24.845H29.2685C30.2594 10.6759 31.0655 9.89213 31.0655 8.92884ZM2.38232 4.0909C2.38232 5.05419 3.18842 5.83794 4.17934 5.83794H21.1128C22.1037 5.83794 22.9098 5.05419 22.9098 4.0909C22.9098 3.12762 22.1037 2.34387 21.1128 2.34387H4.17934C3.18842 2.34387 2.38232 3.12762 2.38232 4.0909ZM24.845 12.0197H7.9116C6.92076 12.0197 6.11459 12.8035 6.11459 13.7668C6.11459 14.7301 6.92076 15.5138 7.9116 15.5138H16.3232C18.4515 13.4395 21.3931 12.1542 24.6378 12.1542C24.9717 12.1542 25.3022 12.1686 25.6292 12.1953C25.39 12.0826 25.1234 12.0197 24.845 12.0197ZM15.1422 16.8577H7.9116C6.92069 16.8577 6.11459 17.6414 6.11459 18.6047C6.11459 19.5681 6.92069 20.3517 7.9116 20.3517H13.3657C13.7509 19.0814 14.3576 17.9027 15.1422 16.8577ZM13.0483 21.6956H7.9116C6.92069 21.6956 6.11459 22.4793 6.11459 23.4426C6.11459 24.406 6.92069 25.1897 7.9116 25.1897H13.0057C12.9287 24.6627 12.888 24.1245 12.888 23.5771C12.888 22.9363 12.9435 22.3079 13.0483 21.6956ZM6.11459 28.2806C6.11459 29.2439 6.92069 30.0276 7.9116 30.0276H14.9462C14.2032 28.9758 13.6366 27.7977 13.2879 26.5335H7.9116C6.92069 26.5335 6.11459 27.3172 6.11459 28.2806ZM14.2704 23.5771C14.2704 29.1347 18.9212 33.6561 24.6378 33.6561C30.3543 33.6561 35.0052 29.1347 35.0052 23.5771C35.0052 18.0195 30.3543 13.4981 24.6378 13.4981C18.9212 13.4981 14.2704 18.0195 14.2704 23.5771ZM22.8747 21.2802C22.8747 22.0967 23.6641 22.7609 24.6344 22.7609C26.4869 22.7609 27.9939 24.1228 27.9939 25.7969C27.9939 27.2219 26.9017 28.42 25.4343 28.7452V29.0811C25.4343 29.5105 25.0761 29.8588 24.6344 29.8588C24.1928 29.8588 23.8346 29.5105 23.8346 29.0811V28.7452C22.3671 28.42 21.275 27.2219 21.275 25.7969C21.275 25.3675 21.6332 25.0193 22.0749 25.0193C22.5166 25.0193 22.8747 25.3675 22.8747 25.7969C22.8747 26.6134 23.6641 27.2776 24.6344 27.2776C25.6048 27.2776 26.3941 26.6134 26.3941 25.7969C26.3941 24.9804 25.6048 24.3161 24.6344 24.3161C22.782 24.3161 21.275 22.9542 21.275 21.2802C21.275 19.8553 22.3671 18.6571 23.8346 18.3319V17.9275C23.8346 17.4981 24.1928 17.1499 24.6344 17.1499C25.0761 17.1499 25.4343 17.4981 25.4343 17.9275V18.3319C26.9017 18.6571 27.9939 19.8553 27.9939 21.2802C27.9939 21.7096 27.6357 22.0579 27.194 22.0579C26.7523 22.0579 26.3941 21.7096 26.3941 21.2802C26.3941 20.4637 25.6048 19.7995 24.6344 19.7995C23.6641 19.7995 22.8747 20.4637 22.8747 21.2802Z" fill="#FF872C"/>
<path d="M27.7762 12.5686L27.5466 12.6677L27.5945 12.7785L27.7111 12.8099L27.7762 12.5686ZM27.4691 12.0197V11.7697H26.9874L27.2647 12.1637L27.4691 12.0197ZM16.0569 31.3715L16.2371 31.1982L16.1634 31.1215H16.0569V31.3715ZM5.93592 25.8616L6.08887 26.0594L6.34455 25.8616L6.08887 25.6639L5.93592 25.8616ZM5.93592 21.0237L6.08887 21.2214L6.34455 21.0237L6.08887 20.8259L5.93592 21.0237ZM5.93592 16.1857L6.08887 16.3835L6.34455 16.1857L6.08887 15.988L5.93592 16.1857ZM9.71415 10.6759V10.9259H10.1973L9.91823 10.5315L9.71415 10.6759ZM9.71415 7.18181L9.91824 7.32619L10.1973 6.93181H9.71415V7.18181ZM23.7337 5.83794L23.5296 5.69355L23.2505 6.08794H23.7337V5.83794ZM16.3232 15.5138V15.7638H16.4248L16.4977 15.6928L16.3232 15.5138ZM25.6292 12.1953L25.6088 12.4444L25.7357 11.9691L25.6292 12.1953ZM15.1422 16.8577L15.3421 17.0078L15.6425 16.6077H15.1422V16.8577ZM13.3657 20.3517V20.6017H13.5511L13.6049 20.4243L13.3657 20.3517ZM13.0483 21.6956L13.2947 21.7378L13.3448 21.4456H13.0483V21.6956ZM13.0057 25.1897V25.4397H13.2948L13.253 25.1536L13.0057 25.1897ZM14.9462 30.0276V30.2776H15.4288L15.1504 29.8834L14.9462 30.0276ZM13.2879 26.5335L13.5289 26.4671L13.4782 26.2835H13.2879V26.5335ZM25.4343 28.7452L25.3802 28.5011L25.1843 28.5445V28.7452H25.4343ZM23.8346 28.7452H24.0846V28.5445L23.8887 28.5011L23.8346 28.7452ZM23.8346 18.3319L23.8887 18.576L24.0846 18.5326V18.3319H23.8346ZM25.4343 18.3319H25.1843V18.5326L25.3802 18.576L25.4343 18.3319ZM28.0057 12.4695C27.9148 12.2589 27.8033 12.0602 27.6735 11.8758L27.2647 12.1637C27.3747 12.3199 27.4693 12.4886 27.5466 12.6677L28.0057 12.4695ZM36.6375 23.5771C36.6375 18.2145 32.9031 13.6928 27.8413 12.3272L27.7111 12.8099C32.5691 14.1206 36.1375 18.4552 36.1375 23.5771H36.6375ZM24.6378 35.25C31.2479 35.25 36.6375 30.0204 36.6375 23.5771H36.1375C36.1375 29.731 30.9852 34.75 24.6378 34.75V35.25ZM15.8767 31.5448C18.0683 33.8237 21.1854 35.25 24.6378 35.25V34.75C21.3252 34.75 18.3371 33.3819 16.2371 31.1982L15.8767 31.5448ZM7.9116 31.6215H16.0569V31.1215H7.9116V31.6215ZM4.48227 28.2806C4.48227 30.1295 6.02717 31.6215 7.9116 31.6215V31.1215C6.28992 31.1215 4.98227 29.8402 4.98227 28.2806H4.48227ZM5.78297 25.6639C4.99332 26.2746 4.48227 27.2192 4.48227 28.2806H4.98227C4.98227 27.3844 5.41313 26.582 6.08887 26.0594L5.78297 25.6639ZM4.48227 23.4426C4.48227 24.5041 4.99332 25.4486 5.78297 26.0594L6.08887 25.6639C5.41313 25.1412 4.98227 24.3388 4.98227 23.4426H4.48227ZM5.78297 20.8259C4.99332 21.4367 4.48227 22.3812 4.48227 23.4426H4.98227C4.98227 22.5465 5.41313 21.7441 6.08887 21.2214L5.78297 20.8259ZM4.48227 18.6047C4.48227 19.6661 4.99332 20.6107 5.78297 21.2214L6.08887 20.8259C5.41313 20.3033 4.98227 19.5009 4.98227 18.6047H4.48227ZM5.78297 15.988C4.99332 16.5987 4.48227 17.5433 4.48227 18.6047H4.98227C4.98227 17.7085 5.41313 16.9062 6.08887 16.3835L5.78297 15.988ZM4.48227 13.7668C4.48227 14.8282 4.99332 15.7727 5.78297 16.3835L6.08887 15.988C5.41313 15.4653 4.98227 14.663 4.98227 13.7668H4.48227ZM7.9116 10.4259C6.02717 10.4259 4.48227 11.9178 4.48227 13.7668H4.98227C4.98227 12.2071 6.28992 10.9259 7.9116 10.9259V10.4259ZM9.71415 10.4259H7.9116V10.9259H9.71415V10.4259ZM8.90569 8.92884C8.90569 9.63092 9.12968 10.2827 9.51008 10.8203L9.91823 10.5315C9.59475 10.0743 9.40569 9.52265 9.40569 8.92884H8.90569ZM9.51006 7.03742C9.12976 7.57498 8.90569 8.22674 8.90569 8.92884H9.40569C9.40569 8.33504 9.59481 7.78337 9.91824 7.32619L9.51006 7.03742ZM4.17934 7.43181H9.71415V6.93181H4.17934V7.43181ZM0.75 4.0909C0.75 5.93987 2.2949 7.43181 4.17934 7.43181V6.93181C2.55765 6.93181 1.25 5.65053 1.25 4.0909H0.75ZM4.17934 0.75C2.2949 0.75 0.75 2.24193 0.75 4.0909H1.25C1.25 2.53128 2.55765 1.25 4.17934 1.25V0.75ZM21.1128 0.75H4.17934V1.25H21.1128V0.75ZM24.5421 4.0909C24.5421 2.24193 22.9972 0.75 21.1128 0.75V1.25C22.7345 1.25 24.0421 2.53128 24.0421 4.0909H24.5421ZM23.9377 5.98232C24.318 5.44476 24.5421 4.793 24.5421 4.0909H24.0421C24.0421 4.6847 23.853 5.23637 23.5296 5.69355L23.9377 5.98232ZM29.2685 5.58794H23.7337V6.08794H29.2685V5.58794ZM32.6978 8.92884C32.6978 7.07987 31.1529 5.58794 29.2685 5.58794V6.08794C30.8901 6.08794 32.1978 7.36921 32.1978 8.92884H32.6978ZM29.2685 12.2697C31.1529 12.2697 32.6978 10.7778 32.6978 8.92884H32.1978C32.1978 10.4885 30.8901 11.7697 29.2685 11.7697V12.2697ZM27.4691 12.2697H29.2685V11.7697H27.4691V12.2697ZM29.2685 7.43181C30.128 7.43181 30.8155 8.11022 30.8155 8.92884H31.3155C31.3155 7.82089 30.3908 6.93181 29.2685 6.93181V7.43181ZM12.335 7.43181H29.2685V6.93181H12.335V7.43181ZM10.788 8.92884C10.788 8.11022 11.4755 7.43181 12.335 7.43181V6.93181C11.2127 6.93181 10.288 7.82089 10.288 8.92884H10.788ZM12.335 10.4259C11.4755 10.4259 10.788 9.74746 10.788 8.92884H10.288C10.288 10.0368 11.2127 10.9259 12.335 10.9259V10.4259ZM24.845 10.4259H12.335V10.9259H24.845V10.4259ZM29.2685 10.4259H24.845V10.9259H29.2685V10.4259ZM30.8155 8.92884C30.8155 9.74746 30.128 10.4259 29.2685 10.4259V10.9259C30.3908 10.9259 31.3155 10.0368 31.3155 8.92884H30.8155ZM4.17934 5.58794C3.3198 5.58794 2.63232 4.90952 2.63232 4.0909H2.13232C2.13232 5.19886 3.05704 6.08794 4.17934 6.08794V5.58794ZM21.1128 5.58794H4.17934V6.08794H21.1128V5.58794ZM22.6598 4.0909C22.6598 4.90952 21.9723 5.58794 21.1128 5.58794V6.08794C22.2351 6.08794 23.1598 5.19886 23.1598 4.0909H22.6598ZM21.1128 2.59387C21.9723 2.59387 22.6598 3.27228 22.6598 4.0909H23.1598C23.1598 2.98295 22.2351 2.09387 21.1128 2.09387V2.59387ZM4.17934 2.59387H21.1128V2.09387H4.17934V2.59387ZM2.63232 4.0909C2.63232 3.27228 3.3198 2.59387 4.17934 2.59387V2.09387C3.05704 2.09387 2.13232 2.98295 2.13232 4.0909H2.63232ZM7.9116 12.2697H24.845V11.7697H7.9116V12.2697ZM6.36459 13.7668C6.36459 12.9482 7.05213 12.2697 7.9116 12.2697V11.7697C6.78938 11.7697 5.86459 12.6588 5.86459 13.7668H6.36459ZM7.9116 15.2638C7.05213 15.2638 6.36459 14.5854 6.36459 13.7668H5.86459C5.86459 14.8747 6.78938 15.7638 7.9116 15.7638V15.2638ZM16.3232 15.2638H7.9116V15.7638H16.3232V15.2638ZM24.6378 11.9042C21.3261 11.9042 18.3224 13.2163 16.1487 15.3348L16.4977 15.6928C18.5807 13.6628 21.4601 12.4042 24.6378 12.4042V11.9042ZM25.6495 11.9461C25.3162 11.9189 24.9789 11.9042 24.6378 11.9042V12.4042C24.9645 12.4042 25.2883 12.4183 25.6088 12.4444L25.6495 11.9461ZM24.845 12.2697C25.0856 12.2697 25.3159 12.3241 25.5226 12.4214L25.7357 11.9691C25.4642 11.8412 25.1613 11.7697 24.845 11.7697V12.2697ZM7.9116 17.1077H15.1422V16.6077H7.9116V17.1077ZM6.36459 18.6047C6.36459 17.7861 7.05207 17.1077 7.9116 17.1077V16.6077C6.78931 16.6077 5.86459 17.4968 5.86459 18.6047H6.36459ZM7.9116 20.1017C7.05206 20.1017 6.36459 19.4234 6.36459 18.6047H5.86459C5.86459 19.7127 6.78931 20.6017 7.9116 20.6017V20.1017ZM13.3657 20.1017H7.9116V20.6017H13.3657V20.1017ZM14.9423 16.7076C14.1406 17.7753 13.5204 18.9802 13.1265 20.2792L13.6049 20.4243C13.9815 19.1827 14.5745 18.0301 15.3421 17.0078L14.9423 16.7076ZM7.9116 21.9456H13.0483V21.4456H7.9116V21.9456ZM6.36459 23.4426C6.36459 22.624 7.05206 21.9456 7.9116 21.9456V21.4456C6.78931 21.4456 5.86459 22.3346 5.86459 23.4426H6.36459ZM7.9116 24.9397C7.05206 24.9397 6.36459 24.2613 6.36459 23.4426H5.86459C5.86459 24.5507 6.78931 25.4397 7.9116 25.4397V24.9397ZM13.0057 24.9397H7.9116V25.4397H13.0057V24.9397ZM12.638 23.5771C12.638 24.1369 12.6797 24.6872 12.7583 25.2258L13.253 25.1536C13.1778 24.6382 13.138 24.112 13.138 23.5771H12.638ZM12.8019 21.6534C12.6947 22.2794 12.638 22.9218 12.638 23.5771H13.138C13.138 22.9507 13.1922 22.3365 13.2947 21.7378L12.8019 21.6534ZM7.9116 29.7776C7.05206 29.7776 6.36459 29.0993 6.36459 28.2806H5.86459C5.86459 29.3886 6.78931 30.2776 7.9116 30.2776V29.7776ZM14.9462 29.7776H7.9116V30.2776H14.9462V29.7776ZM13.0469 26.6C13.4035 27.8927 13.9828 29.0971 14.742 30.1718L15.1504 29.8834C14.4236 28.8545 13.8697 27.7026 13.5289 26.4671L13.0469 26.6ZM7.9116 26.7835H13.2879V26.2835H7.9116V26.7835ZM6.36459 28.2806C6.36459 27.4619 7.05206 26.7835 7.9116 26.7835V26.2835C6.78931 26.2835 5.86459 27.1726 5.86459 28.2806H6.36459ZM24.6378 33.4061C19.0525 33.4061 14.5204 28.99 14.5204 23.5771H14.0204C14.0204 29.2794 18.7898 33.9061 24.6378 33.9061V33.4061ZM34.7552 23.5771C34.7552 28.99 30.223 33.4061 24.6378 33.4061V33.9061C30.4857 33.9061 35.2552 29.2794 35.2552 23.5771H34.7552ZM24.6378 13.7481C30.223 13.7481 34.7552 18.1642 34.7552 23.5771H35.2552C35.2552 17.8748 30.4857 13.2481 24.6378 13.2481V13.7481ZM14.5204 23.5771C14.5204 18.1642 19.0525 13.7481 24.6378 13.7481V13.2481C18.7898 13.2481 14.0204 17.8748 14.0204 23.5771H14.5204ZM24.6344 22.5109C23.76 22.5109 23.1247 21.9199 23.1247 21.2802H22.6247C22.6247 22.2734 23.5682 23.0109 24.6344 23.0109V22.5109ZM28.2439 25.7969C28.2439 23.9615 26.6005 22.5109 24.6344 22.5109V23.0109C26.3732 23.0109 27.7439 24.2841 27.7439 25.7969H28.2439ZM25.4884 28.9893C27.0507 28.6431 28.2439 27.358 28.2439 25.7969H27.7439C27.7439 27.0857 26.7528 28.197 25.3802 28.5011L25.4884 28.9893ZM25.6843 29.0811V28.7452H25.1843V29.0811H25.6843ZM24.6344 30.1088C25.2075 30.1088 25.6843 29.6552 25.6843 29.0811H25.1843C25.1843 29.3659 24.9448 29.6088 24.6344 29.6088V30.1088ZM23.5846 29.0811C23.5846 29.6552 24.0614 30.1088 24.6344 30.1088V29.6088C24.3241 29.6088 24.0846 29.3659 24.0846 29.0811H23.5846ZM23.5846 28.7452V29.0811H24.0846V28.7452H23.5846ZM21.025 25.7969C21.025 27.358 22.2182 28.6431 23.7805 28.9893L23.8887 28.5011C22.5161 28.197 21.525 27.0857 21.525 25.7969H21.025ZM22.0749 24.7693C21.5018 24.7693 21.025 25.2228 21.025 25.7969H21.525C21.525 25.5121 21.7646 25.2693 22.0749 25.2693V24.7693ZM23.1247 25.7969C23.1247 25.2228 22.6479 24.7693 22.0749 24.7693V25.2693C22.3852 25.2693 22.6247 25.5121 22.6247 25.7969H23.1247ZM24.6344 27.0276C23.76 27.0276 23.1247 26.4366 23.1247 25.7969H22.6247C22.6247 26.7901 23.5682 27.5276 24.6344 27.5276V27.0276ZM26.1441 25.7969C26.1441 26.4366 25.5089 27.0276 24.6344 27.0276V27.5276C25.7007 27.5276 26.6441 26.7901 26.6441 25.7969H26.1441ZM24.6344 24.5661C25.5089 24.5661 26.1441 25.1571 26.1441 25.7969H26.6441C26.6441 24.8036 25.7007 24.0661 24.6344 24.0661V24.5661ZM21.025 21.2802C21.025 23.1155 22.6684 24.5661 24.6344 24.5661V24.0661C22.8957 24.0661 21.525 22.7929 21.525 21.2802H21.025ZM23.7805 18.0878C22.2182 18.4341 21.025 19.7191 21.025 21.2802H21.525C21.525 19.9915 22.5161 18.8802 23.8887 18.576L23.7805 18.0878ZM23.5846 17.9275V18.3319H24.0846V17.9275H23.5846ZM24.6344 16.8999C24.0614 16.8999 23.5846 17.3534 23.5846 17.9275H24.0846C24.0846 17.6427 24.3241 17.3999 24.6344 17.3999V16.8999ZM25.6843 17.9275C25.6843 17.3534 25.2075 16.8999 24.6344 16.8999V17.3999C24.9448 17.3999 25.1843 17.6427 25.1843 17.9275H25.6843ZM25.6843 18.3319V17.9275H25.1843V18.3319H25.6843ZM28.2439 21.2802C28.2439 19.7191 27.0507 18.4341 25.4884 18.0878L25.3802 18.576C26.7528 18.8802 27.7439 19.9915 27.7439 21.2802H28.2439ZM27.194 22.3079C27.7671 22.3079 28.2439 21.8543 28.2439 21.2802H27.7439C27.7439 21.565 27.5043 21.8079 27.194 21.8079V22.3079ZM26.1441 21.2802C26.1441 21.8543 26.6209 22.3079 27.194 22.3079V21.8079C26.8837 21.8079 26.6441 21.565 26.6441 21.2802H26.1441ZM24.6344 20.0495C25.5089 20.0495 26.1441 20.6405 26.1441 21.2802H26.6441C26.6441 20.287 25.7007 19.5495 24.6344 19.5495V20.0495ZM23.1247 21.2802C23.1247 20.6405 23.76 20.0495 24.6344 20.0495V19.5495C23.5682 19.5495 22.6247 20.287 22.6247 21.2802H23.1247Z" fill="#FF872C"/>
<path d="M53.6923 17.2989C53.6923 20.8288 56.119 23.2167 59.2759 23.2167C61.4234 23.2167 62.9481 22.1162 63.6568 20.8911V23.279C63.6568 25.7084 62.0891 26.9958 60.006 26.9958C58.0733 26.9958 56.6774 26.0614 56.2479 24.691H54.3151C54.7016 27.1204 56.9136 28.6362 60.006 28.6362C63.4636 28.6362 65.6326 26.4144 65.6326 23.279V11.651H63.6568V13.7274C62.9696 12.5023 61.4234 11.4641 59.2759 11.4641C56.119 11.4641 53.6923 13.7482 53.6923 17.2989ZM63.6568 17.3196C63.6568 19.9982 61.81 21.5556 59.6624 21.5556C57.5149 21.5556 55.6895 19.9775 55.6895 17.2989C55.6895 14.6203 57.5149 13.1045 59.6624 13.1045C61.81 13.1045 63.6568 14.6826 63.6568 17.3196Z" fill="white"/>
<path d="M80.1022 17.3196C80.1022 13.7274 77.5037 11.4641 74.1535 11.4641C70.8249 11.4641 68.2049 13.7274 68.2049 17.3196C68.2049 20.9326 70.739 23.2167 74.0676 23.2167C77.4178 23.2167 80.1022 20.9326 80.1022 17.3196ZM70.2021 17.3196C70.2021 14.4542 72.0704 13.1045 74.1321 13.1045C76.1507 13.1045 78.105 14.4542 78.105 17.3196C78.105 20.2059 76.1078 21.5556 74.0676 21.5556C72.0275 21.5556 70.2021 20.2059 70.2021 17.3196Z" fill="white"/>
<path d="M83.7955 23.03H86.2652V13.5199H88.4557V11.5889H86.2652V10.7791C86.2652 9.47092 86.7806 8.97257 88.2839 8.97257V6.99997C85.1914 6.99997 83.7955 8.142 83.7955 10.7791V11.5889H82.3996V13.5199H83.7955V23.03Z" fill="white"/>
<path d="M90.6253 23.03H93.0735V11.5889H90.6253V23.03ZM91.8709 10.0731C92.7299 10.0731 93.4171 9.40862 93.4171 8.55729C93.4171 7.70595 92.7299 7.0415 91.8709 7.0415C90.9904 7.0415 90.3032 7.70595 90.3032 8.55729C90.3032 9.40862 90.9904 10.0731 91.8709 10.0731Z" fill="white"/>
<path d="M104.685 23.03H107.111V16.2816C107.111 13.0839 105.028 11.402 102.258 11.402C100.841 11.402 99.5305 11.9626 98.7359 12.897V11.5889H96.2878V23.03H98.7359V16.6346C98.7359 14.5374 99.9171 13.4577 101.721 13.4577C103.503 13.4577 104.685 14.5374 104.685 16.6346V23.03Z" fill="white"/>
<path d="M109.418 17.2575C109.418 20.7874 111.888 23.2169 114.959 23.2169C116.934 23.2169 118.352 22.3032 119.103 21.3273V23.03H121.573V11.5889H119.103V13.25C118.373 12.3156 116.999 11.402 115.002 11.402C111.888 11.402 109.418 13.7276 109.418 17.2575ZM119.103 17.299C119.103 19.77 117.364 21.1612 115.517 21.1612C113.692 21.1612 111.931 19.7285 111.931 17.2575C111.931 14.7866 113.692 13.4577 115.517 13.4577C117.364 13.4577 119.103 14.8489 119.103 17.299Z" fill="white"/>
<path d="M133.185 23.03H135.612V16.2816C135.612 13.0839 133.529 11.402 130.759 11.402C129.341 11.402 128.031 11.9626 127.237 12.897V11.5889H124.789V23.03H127.237V16.6346C127.237 14.5374 128.418 13.4577 130.222 13.4577C132.004 13.4577 133.185 14.5374 133.185 16.6346V23.03Z" fill="white"/>
<path d="M137.919 17.299C137.919 20.8913 140.324 23.2169 143.717 23.2169C146.616 23.2169 148.506 21.6595 149.172 19.417H146.53C146.079 20.6006 145.178 21.2235 143.717 21.2235C141.741 21.2235 140.431 19.8115 140.431 17.299C140.431 14.8073 141.741 13.3954 143.717 13.3954C145.178 13.3954 146.122 14.1013 146.53 15.2019H149.172C148.506 12.7932 146.616 11.402 143.717 11.402C140.324 11.402 137.919 13.7276 137.919 17.299Z" fill="white"/>
<path d="M156.594 13.3954C158.419 13.3954 159.858 14.5166 159.901 16.2816H153.351C153.609 14.4751 154.94 13.3954 156.594 13.3954ZM162.135 19.6246H159.493C159.042 20.5175 158.205 21.2235 156.701 21.2235C154.897 21.2235 153.502 20.0815 153.33 18.1919H162.371C162.435 17.7974 162.457 17.4236 162.457 17.0291C162.457 13.6653 160.073 11.402 156.701 11.402C153.201 11.402 150.796 13.7068 150.796 17.299C150.796 20.8913 153.308 23.2169 156.701 23.2169C159.601 23.2169 161.469 21.618 162.135 19.6246Z" fill="white"/>
<path d="M173.692 19.8323C173.563 15.7002 166.885 16.9876 166.885 14.6827C166.885 13.9145 167.572 13.3954 168.882 13.3954C170.213 13.3954 171.008 14.0806 171.094 15.0773H173.542C173.413 12.7932 171.652 11.402 168.968 11.402C166.176 11.402 164.415 12.8763 164.415 14.7035C164.415 18.8979 171.287 17.6105 171.287 19.853C171.287 20.6421 170.535 21.2235 169.118 21.2235C167.765 21.2235 166.842 20.4552 166.756 19.5208H164.222C164.329 21.5972 166.326 23.2169 169.161 23.2169C171.953 23.2169 173.692 21.7634 173.692 19.8323Z" fill="white"/>
</svg>
